<?xml version="1.0" encoding="UTF-8" standalone="no" ?>
<!DOCTYPE svg PUBLIC "-//W3C//DTD SVG 1.1//EN" "http://www.w3.org/Graphics/SVG/1.1/DTD/svg11.dtd">
<svg xmlns="http://www.w3.org/2000/svg" xmlns:xlink="http://www.w3.org/1999/xlink" version="1.1" width="1080" height="1080" viewBox="0 0 1080 1080" xml:space="preserve">
<desc>Created with Fabric.js 5.2.4</desc>
<defs>
</defs>
<rect x="0" y="0" width="100%" height="100%" fill="transparent"></rect>
<g transform="matrix(1 0 0 1 540 540)" id="6440b883-de11-476d-8f23-c9670a516fad"  >
</g>
<g transform="matrix(1 0 0 1 540 540)" id="6831b85d-717d-4cdd-a6a9-b002c83a3ffd"  >
<rect style="stroke: none; stroke-width: 1; stroke-dasharray: none; stroke-linecap: butt; stroke-dashoffset: 0; stroke-linejoin: miter; stroke-miterlimit: 4; fill: rgb(255,255,255); fill-rule: nonzero; opacity: 1; visibility: hidden;" vector-effect="non-scaling-stroke"  x="-540" y="-540" rx="0" ry="0" width="1080" height="1080" />
</g>
<g transform="matrix(8.44 0 0 8.44 256.13 540)"  >
<path style="stroke: none; stroke-width: 1; stroke-dasharray: none; stroke-linecap: butt; stroke-dashoffset: 0; stroke-linejoin: miter; stroke-miterlimit: 4; fill: rgb(65,193,186); fill-rule: evenodd; opacity: 1;" vector-effect="non-scaling-stroke"  transform=" translate(-28.96, -58.05)" d="M 57.13 65.77 L 57.13 65.77 z M 30.590000000000003 57.06999999999999 L 30.590000000000003 57.06999999999999 z M 57.52 8.68999999999999 L 57.52 8.68999999999999 z M 37.45 1.4499999999999904 L 37.45 1.4499999999999904 z M 9.220000000000002 85.29999999999998 C 9.220000000000002 92.17999999999998 14.370000000000003 97.87999999999998 21.01 98.74999999999999 C 21.950000000000003 94.90999999999998 23.94 91.46999999999998 26.650000000000002 88.75999999999999 C 30.51 84.89999999999999 35.84 82.50999999999999 41.74 82.50999999999999 C 43.2 82.50999999999999 44.39 83.69999999999999 44.39 85.16 C 44.39 86.61999999999999 43.2 87.81 41.74 87.81 C 41.54 87.81 41.35 87.81 41.160000000000004 87.82000000000001 C 42.830000000000005 89.85000000000001 44.410000000000004 92.94000000000001 44.290000000000006 97.32000000000001 C 44.25000000000001 98.78 43.03000000000001 99.93 41.580000000000005 99.89 C 40.120000000000005 99.85 38.970000000000006 98.63 39.010000000000005 97.18 C 39.17 91.48 35.050000000000004 89.4 35.040000000000006 89.39 C 35.00000000000001 89.37 34.970000000000006 89.35 34.93000000000001 89.33 C 33.24000000000001 90.12 31.710000000000008 91.21 30.410000000000007 92.51 C 27.51000000000001 95.41000000000001 25.710000000000008 99.42 25.710000000000008 103.85000000000001 C 25.710000000000008 104.67 25.770000000000007 105.47000000000001 25.890000000000008 106.25000000000001 C 28.840000000000007 112.08000000000001 34.89000000000001 116.09000000000002 41.86000000000001 116.09000000000002 C 48.52000000000001 116.09000000000002 54.580000000000005 112.42000000000002 57.68000000000001 106.51000000000002 L 57.89000000000001 106.11000000000001 L 57.89000000000001 66.44000000000001 C 57.61000000000001 66.26 57.36000000000001 66.04 57.14000000000001 65.75000000000001 L 57.080000000000005 65.68000000000002 C 54.440000000000005 61.89000000000002 50.52 59.53000000000002 46.32000000000001 58.78000000000002 C 45.77000000000001 58.68000000000002 45.220000000000006 58.61000000000002 44.66000000000001 58.57000000000002 C 43.54000000000001 59.770000000000024 42.47000000000001 61.130000000000024 41.70000000000001 62.60000000000002 C 40.93000000000001 64.07000000000002 40.49000000000001 65.63000000000002 40.70000000000001 67.17000000000002 C 40.90000000000001 68.68000000000002 39.84000000000001 70.06000000000002 38.34000000000001 70.27000000000001 C 36.83000000000001 70.47000000000001 35.45000000000001 69.42000000000002 35.24000000000001 67.91000000000001 C 34.86000000000001 65.09000000000002 35.55000000000001 62.44000000000001 36.80000000000001 60.06000000000001 C 36.84000000000001 59.98000000000001 36.88000000000001 59.90000000000001 36.92000000000001 59.83000000000001 C 35.85000000000001 60.280000000000015 34.81000000000001 60.850000000000016 33.82000000000001 61.54000000000001 L 33.82000000000001 61.530000000000015 C 32.61000000000001 62.37000000000002 30.94000000000001 62.110000000000014 30.050000000000008 60.920000000000016 C 29.140000000000008 59.710000000000015 29.380000000000006 57.98000000000002 30.60000000000001 57.070000000000014 L 30.680000000000007 57.01000000000001 C 35.71000000000001 53.51000000000001 41.690000000000005 52.38000000000001 47.290000000000006 53.38000000000001 C 51.150000000000006 54.07000000000001 54.830000000000005 55.77000000000001 57.89000000000001 58.41000000000001 L 57.89000000000001 9.220000000000013 C 57.75000000000001 9.060000000000013 57.63000000000001 8.880000000000013 57.53000000000001 8.690000000000014 L 57.50000000000001 8.640000000000013 C 55.720000000000006 4.880000000000013 52.59 2.190000000000013 48.970000000000006 0.890000000000013 C 45.35000000000001 -0.40999999999998704 41.220000000000006 -0.32999999999998697 37.46000000000001 1.450000000000013 C 33.70000000000001 3.230000000000013 31.01000000000001 6.360000000000014 29.710000000000008 9.980000000000013 C 28.410000000000007 13.600000000000012 28.49000000000001 17.73000000000001 30.270000000000007 21.490000000000013 C 30.850000000000005 22.73000000000001 30.320000000000007 24.21000000000001 29.080000000000005 24.80000000000001 C 27.840000000000007 25.38000000000001 26.360000000000007 24.850000000000012 25.770000000000007 23.61000000000001 C 24.410000000000007 20.73000000000001 23.800000000000008 17.68000000000001 23.860000000000007 14.70000000000001 C 14.950000000000006 15.70000000000001 8.000000000000007 23.29000000000001 8.000000000000007 32.46000000000001 C 8.000000000000007 33.93000000000001 8.180000000000007 35.400000000000006 8.540000000000006 36.82000000000001 C 10.960000000000006 36.45000000000001 13.480000000000008 36.56000000000001 16.000000000000007 37.20000000000001 C 20.610000000000007 38.39000000000001 24.770000000000007 41.34000000000001 27.38000000000001 45.77000000000001 C 28.03000000000001 46.87000000000001 27.66000000000001 48.28000000000001 26.57000000000001 48.93000000000001 C 25.47000000000001 49.580000000000005 24.06000000000001 49.21000000000001 23.41000000000001 48.120000000000005 C 19.81000000000001 42.02 12.41000000000001 39.63 5.920000000000012 42.34 C 2.1500000000000123 46.470000000000006 0.020000000000012008 51.89 0.020000000000012008 57.650000000000006 C 0.020000000000012008 65.97 4.520000000000012 73.54 11.670000000000012 77.54 C 10.090000000000012 79.80000000000001 9.230000000000013 82.48 9.230000000000013 85.30000000000001 z" stroke-linecap="round" />
</g>
<g transform="matrix(4.68 0 0 4.68 770.96 602.75)"  >
<g style="" vector-effect="non-scaling-stroke"   >
		<g transform="matrix(1 0 0 1 0 -1.72)"  >
<path style="stroke: none; stroke-width: 1; stroke-dasharray: none; stroke-linecap: butt; stroke-dashoffset: 0; stroke-linejoin: miter; stroke-miterlimit: 4; fill: rgb(65,193,186); fill-rule: evenodd; opacity: 1;" vector-effect="non-scaling-stroke"  transform=" translate(-63.04, -76.19)" d="M 3.16 152.38 L 0 135.5 C 7.58 126.02 11.91 114.49 12.56 102.6 C 13.05 44.449999999999996 58.49 -11.89 126.08 2.1799999999999926 C 113.31 8.019999999999992 103.35 16.86999999999999 96.21 28.729999999999993 C 87.05 29.909999999999993 78.64999999999999 33.129999999999995 71.00999999999999 38.379999999999995 C 75.63999999999999 37.669999999999995 82.66999999999999 36.33 92.08999999999999 34.37 C 88.52999999999999 41.69 83.32999999999998 50.22 76.47999999999999 59.959999999999994 C 66.79999999999998 59.699999999999996 57.27999999999999 62.419999999999995 49.17999999999999 67.74 C 56.919999999999995 65.5 65.02 64.82 73.03 65.72999999999999 C 62.980000000000004 84.19999999999999 47.59 96.54999999999998 26.870000000000005 102.77999999999999 C 33.660000000000004 79.43999999999998 44.60000000000001 57.509999999999984 59.150000000000006 38.04999999999998 C 40.89 53.289999999999985 22.230000000000004 91.38999999999999 3.170000000000009 152.36999999999998 z" stroke-linecap="round" />
</g>
		<g transform="matrix(1 0 0 1 -6.53 63.39)"  >
<path style="stroke: none; stroke-width: 1; stroke-dasharray: none; stroke-linecap: butt; stroke-dashoffset: 0; stroke-linejoin: miter; stroke-miterlimit: 4; fill: rgb(65,193,186); fill-rule: nonzero; opacity: 1;" vector-effect="non-scaling-stroke"  transform=" translate(-56.51, -141.3)" d="M 74.15 149.71 C 94.19 141.79000000000002 94.80000000000001 137.05 110.46000000000001 126.78 C 58.57000000000001 183.14 55.75000000000001 139.75 26.67 141.61 C 19.1 142.09 11.060000000000002 145.85000000000002 2.5600000000000023 152.88000000000002 C 39.57 111.97000000000003 49.54 159.45000000000002 74.15 149.72000000000003 z" stroke-linecap="round" />
</g>
</g>
</g>
</svg>